<svg width="357" height="545" viewBox="0 0 357 545" fill="none" xmlns="http://www.w3.org/2000/svg">
<path d="M356.853 225.496V365.752C356.853 464.242 277.013 544.084 178.52 544.084C80.0267 544.084 0.18396 464.242 0.18396 365.752V316.895V298.164V288.664V257.041V189.048V147.925C0.18396 129.336 15.2533 114.267 33.8399 114.267C52.4266 114.267 67.5066 129.336 67.5066 147.925V189.048V257.041V280.761L71.16 280.331V226.505V189.048V175.612V117.388V66.4946C71.16 47.9053 86.24 32.836 104.827 32.836C123.413 32.836 138.48 47.9053 138.48 66.4946V117.388V175.612V189.048V226.505V272.428L142.693 271.935V221.212V189.048V143.447V112.095V34.3293C142.693 15.74 157.76 0.671985 176.347 0.671985C194.933 0.671985 210 15.74 210 34.3293V112.095V130.068V189.048V207.835V264.033L213.667 263.603V231.713V189.048V161.276V141.411V70.9733C213.667 52.384 228.733 37.3147 247.32 37.3147C265.92 37.3147 280.987 52.384 280.987 70.9733V141.411V146.704V189.048V217.141V264.779V351.343C267.36 351.223 224.333 352.661 201.16 374.669C191.227 384.107 186.187 396.128 186.187 410.403H194.16C194.16 398.407 198.36 388.335 206.64 380.467C231.347 356.993 284.24 359.397 284.773 359.423L288.96 359.636L288.987 304.484V225.496C288.987 206.757 304.187 191.567 322.92 191.567C341.653 191.567 356.853 206.757 356.853 225.496Z" fill="#231F20"/>
</svg>
