<svg width="358" height="526" viewBox="0 0 358 526" fill="none" xmlns="http://www.w3.org/2000/svg">
<path d="M323.573 250.989C342.312 250.989 357.503 266.18 357.503 284.919C357.503 303.657 342.312 318.848 323.573 318.848H244.585C225.847 318.848 210.656 303.657 210.656 284.919C210.656 266.18 225.847 250.989 244.585 250.989H323.573ZM176.999 313.148C190.145 313.148 201.503 305.592 207.043 294.603C206.241 291.5 205.769 288.267 205.769 284.919C205.769 278.096 207.552 271.688 210.656 266.112C212.712 262.476 214.321 260.676 214.321 260.676C221.44 251.805 232.352 246.104 244.585 246.104H281.636L334.303 56.652C339.283 38.7413 328.8 20.188 310.891 15.208C292.981 10.2293 274.427 20.712 269.448 38.6213L214.321 236.921H210.656V170.372V34.248C210.656 15.66 195.587 0.590681 176.999 0.590681C158.409 0.590681 143.34 15.66 143.34 34.248V170.372V279.489C143.34 298.079 158.409 313.148 176.999 313.148ZM105.475 313.148C124.064 313.148 139.133 298.079 139.133 279.489V170.372C139.133 151.784 124.064 136.715 105.475 136.715C86.8867 136.715 71.8173 151.784 71.8173 170.372V279.489C71.8173 298.079 86.8867 313.148 105.475 313.148ZM323.573 323.733H271.759V339.349L269.447 339.473C268.475 339.524 172.248 345.208 172.248 391.999H167.363C167.363 344.333 251.355 335.896 266.873 334.747V323.733H244.585C228.797 323.733 215.205 314.244 209.148 300.681C202.244 311.12 190.423 318.033 176.999 318.033C160.801 318.033 146.932 307.979 141.237 293.793C135.543 307.979 121.672 318.033 105.475 318.033C89.552 318.033 75.8547 308.327 69.9853 294.52C64.116 308.327 50.4187 318.033 34.4959 318.033C20.0401 318.033 7.43278 310.024 0.836914 298.22V347.077C0.836914 445.567 80.6787 525.409 179.169 525.409C277.66 525.409 357.503 445.567 357.503 347.077V303.724C350.869 315.643 338.155 323.733 323.573 323.733ZM34.4953 313.148C53.084 313.148 68.1533 298.079 68.1533 279.489V170.372C68.1533 151.784 53.084 136.715 34.4953 136.715C15.9063 136.715 0.836914 151.784 0.836914 170.372V279.489C0.836914 298.079 15.9063 313.148 34.4953 313.148Z" fill="#231F20"/>
</svg>
