<svg width="357" height="389" viewBox="0 0 357 389" fill="none" xmlns="http://www.w3.org/2000/svg">
<path d="M244.083 114.353H323.071C341.808 114.353 357 129.544 357 148.283C357 167.021 341.808 182.212 323.071 182.212H244.083C225.344 182.212 210.153 167.021 210.153 148.283C210.153 129.544 225.344 114.353 244.083 114.353ZM244.083 109.468H281.133V33.7374C281.133 15.148 266.064 0.0800321 247.476 0.0800321C228.887 0.0800321 213.817 15.148 213.817 33.7374V124.04C220.937 115.169 231.849 109.468 244.083 109.468ZM176.495 176.512C189.643 176.512 201 168.957 206.539 157.967C205.739 154.865 205.267 151.632 205.267 148.283C205.267 141.46 207.049 135.053 210.153 129.476V33.7374C210.153 15.148 195.084 0.0800321 176.495 0.0800321C157.907 0.0800321 142.837 15.148 142.837 33.7374V142.855C142.837 161.443 157.907 176.512 176.495 176.512ZM104.972 176.512C123.561 176.512 138.631 161.443 138.631 142.855V33.7374C138.631 15.148 123.561 0.0800321 104.972 0.0800321C86.384 0.0800321 71.3146 15.148 71.3146 33.7374V142.855C71.3146 161.443 86.384 176.512 104.972 176.512ZM323.071 187.097H271.256V202.715L268.943 202.839C267.972 202.889 171.745 208.573 171.745 255.364H166.86C166.86 207.699 250.852 199.261 266.369 198.111V187.097H244.083C228.293 187.097 214.703 177.608 208.644 164.045C201.741 174.484 189.92 181.397 176.496 181.397C160.299 181.397 146.429 171.343 140.733 157.157C135.039 171.343 121.169 181.397 104.972 181.397C89.0493 181.397 75.3506 171.691 69.4813 157.884C63.6133 171.691 49.916 181.397 33.9933 181.397C19.5373 181.397 6.92926 173.388 0.334595 161.584V210.441C0.334595 308.932 80.176 388.774 178.667 388.774C277.157 388.774 357 308.932 357 210.441V167.088C350.367 179.007 337.651 187.097 323.071 187.097ZM33.9919 176.512C52.5813 176.512 67.6506 161.443 67.6506 142.855V33.7374C67.6506 15.148 52.5813 0.0800321 33.9919 0.0800321C15.4026 0.0800321 0.334595 15.148 0.334595 33.7374V142.855C0.334595 161.443 15.4026 176.512 33.9919 176.512Z" fill="#231F20"/>
</svg>
